<?xml version="1.0" standalone="no"?>
<!DOCTYPE svg PUBLIC "-//W3C//DTD SVG 20010904//EN"
 "http://www.w3.org/TR/2001/REC-SVG-20010904/DTD/svg10.dtd">
<svg version="1.0" xmlns="http://www.w3.org/2000/svg"
 width="360.000000pt" height="360.000000pt" viewBox="0 0 360.000000 360.000000"
 preserveAspectRatio="xMidYMid meet">

<g transform="translate(0.000000,360.000000) scale(0.100000,-0.100000)"
fill="#000000" stroke="none">
<path d="M1625 3499 c-123 -12 -278 -47 -403 -92 l-114 -40 74 -46 c78 -50
268 -169 873 -550 209 -131 382 -237 384 -235 7 6 -202 899 -213 911 -14 15
-145 41 -265 53 -111 11 -222 11 -336 -1z"/>
<path d="M2487 3188 c24 -106 69 -301 99 -433 31 -132 68 -298 85 -370 73
-329 118 -517 122 -522 3 -3 12 6 20 19 178 282 469 752 473 762 6 15 -83 151
-155 236 -157 187 -333 329 -541 434 -166 84 -154 98 -103 -126z"/>
<path d="M807 3194 c-177 -120 -355 -307 -474 -499 -57 -91 -148 -274 -140
-281 3 -4 1489 326 1529 339 9 2 -797 507 -810 507 -4 0 -51 -30 -105 -66z"/>
<path d="M3060 1923 c-179 -285 -362 -576 -407 -648 -45 -71 -78 -131 -74
-133 5 -1 64 11 132 27 68 16 228 53 354 81 127 29 270 62 320 74 l90 22 17
85 c48 230 45 490 -8 727 -26 118 -80 282 -93 282 -3 0 -153 -233 -331 -517z"/>
<path d="M695 2330 c-187 -44 -393 -91 -457 -106 l-117 -28 -15 -65 c-67 -295
-40 -651 70 -949 29 -79 41 -99 49 -90 7 7 41 60 77 118 36 58 172 274 303
480 131 206 275 434 320 505 45 72 94 149 108 173 17 26 22 42 15 41 -7 0
-166 -36 -353 -79z"/>
<path d="M572 1284 l-253 -404 34 -52 c114 -177 302 -365 492 -493 80 -54 313
-171 321 -162 4 3 -12 88 -35 189 -23 101 -69 302 -103 448 -33 146 -71 310
-83 365 -52 230 -116 510 -118 512 -1 1 -116 -180 -255 -403z"/>
<path d="M3275 1105 c-301 -68 -522 -119 -615 -140 -304 -70 -546 -126 -635
-145 -55 -12 -106 -26 -114 -30 -8 -4 123 -92 380 -253 388 -243 394 -246 419
-230 212 134 392 312 540 532 39 58 150 269 150 285 0 9 -14 7 -125 -19z"/>
<path d="M1180 1001 c0 -9 159 -710 192 -846 7 -27 17 -53 22 -57 5 -3 52 -15
105 -25 146 -28 478 -25 621 5 116 25 319 87 345 105 14 11 -35 45 -337 234
-194 121 -481 302 -638 400 -157 98 -291 182 -297 186 -7 5 -13 4 -13 -2z"/>
</g>
</svg>
